<svg width="50" height="74" viewBox="0 0 50 74" fill="none" xmlns="http://www.w3.org/2000/svg">
<path d="M48.8554 59.9578C48.2568 59.9578 47.7714 60.4431 47.7714 61.0418V71.2332C47.7714 71.5632 47.5029 71.8317 47.1729 71.8317H41.3459V50.4849C41.3459 49.8863 40.8605 49.4009 40.2619 49.4009C39.6632 49.4009 39.1779 49.8863 39.1779 50.4849V71.8319H27.4441L30.8468 68.0885C31.2186 67.6795 31.3939 67.0969 31.3157 66.5295C31.3143 66.5185 31.3125 66.5075 31.3106 66.4965L28.0698 47.3509L28.9429 46.0365C29.4257 46.3794 29.7975 46.7095 30.4949 46.7095C31.2043 46.7095 31.8675 46.3124 32.1939 45.6589V45.6587L35.612 38.8079L43.3988 41.8236C43.6805 41.9444 47.7712 43.7866 47.7712 48.651V55.983C47.771 56.5815 48.2564 57.067 48.8551 57.067C49.4538 57.067 49.9391 56.5817 49.9391 55.983V48.651C49.9391 42.2419 44.4514 39.9122 44.2179 39.816C44.2111 39.8132 44.2041 39.8104 44.1972 39.8078L31.2374 34.7888V31.7493C33.2958 30.1485 34.723 27.7754 35.0813 25.0681C36.1076 24.9958 37.0599 24.6125 37.8377 23.9438C38.8533 23.0704 39.436 21.7992 39.436 20.4568C39.436 19.3428 39.0341 18.279 38.3178 17.4501V13.4346C38.3177 6.02681 32.291 0 24.8832 0C17.4754 0 11.4487 6.02681 11.4487 13.4346V17.5553C10.7248 18.3758 10.3311 19.3858 10.3311 20.4567C10.3311 21.7995 10.9135 23.0705 11.9294 23.9441C12.7066 24.6125 13.6583 24.9954 14.6843 25.0678C15.0455 27.8259 16.5144 30.2874 18.7481 31.9098V34.7888L5.80232 39.8077C5.79552 39.8103 5.78873 39.813 5.78194 39.8158C5.54823 39.9119 0.0606689 42.2416 0.0606689 48.6507V71.2329C0.0606689 72.7585 1.30176 73.9996 2.82729 73.9996H13.1551C13.7537 73.9996 14.239 73.5142 14.239 72.9156C14.239 72.3169 13.7537 71.8316 13.1551 71.8316H10.8228V50.4849C10.8228 49.8863 10.3374 49.4009 9.73877 49.4009C9.14012 49.4009 8.65479 49.8863 8.65479 50.4849V71.8319H2.82743C2.49747 71.8319 2.22893 71.5633 2.22893 71.2334V48.6508C2.22893 43.7701 6.34706 41.9321 6.59999 41.824L14.3807 38.8077L17.7991 45.6587C18.1262 46.3139 18.7903 46.7095 19.4982 46.7095C20.1921 46.7095 20.5604 46.3844 21.0502 46.0365L21.9233 47.3509L18.6828 66.4967C18.6809 66.5075 18.6793 66.5183 18.6777 66.5293C18.5994 67.0965 18.7747 67.6794 19.1466 68.0887L22.5493 71.832H18.2141C17.6154 71.832 17.1301 72.3174 17.1301 72.916C17.1301 73.5147 17.6154 74 18.2141 74H47.1731C48.6986 74 49.9397 72.7588 49.9397 71.2334V61.0419C49.9394 60.4431 49.4541 59.9578 48.8554 59.9578ZM33.5815 38.0217L30.3947 44.4085C30.3155 44.3523 28.6267 43.1524 26.5622 41.6864C27.458 40.5806 26.41 41.8742 30.4985 36.8277L33.5815 38.0217ZM27.1742 44.7806L26.3477 46.0245H23.6446L22.8181 44.7806L24.9962 43.2336L27.1742 44.7806ZM20.9159 35.1386V33.1099C22.2329 33.6408 23.6404 33.8869 25.0149 33.8869C26.436 33.8869 27.8297 33.584 29.0692 33.042V35.1474L24.9962 40.1749L20.9159 35.1386ZM37.2679 20.4568C37.2678 21.1669 36.9602 21.8388 36.424 22.3C36.0695 22.605 35.6412 22.7999 35.1722 22.8763V18.0378C36.4181 18.2401 37.2679 19.2735 37.2679 20.4568ZM14.5947 22.8763C13.3347 22.6718 12.499 21.63 12.499 20.4567C12.499 19.2978 13.4597 18.3546 14.5947 18.0923V22.8763ZM14.653 15.8834C14.3077 15.923 13.912 16.0165 13.617 16.1168V13.4346C13.617 7.22223 18.6709 2.16811 24.8833 2.16811C31.0957 2.16811 36.1497 7.22223 36.1497 13.4346V16.0424C35.8346 15.9466 35.5078 15.8833 35.1724 15.8535C35.1724 14.8075 35.1815 15.0093 31.7597 11.3305C31.1304 10.6544 30.0895 10.5128 29.2973 11.0303C25.5207 13.4973 20.9138 14.7367 16.6631 14.4314C15.7307 14.3616 14.8815 14.9758 14.653 15.8834ZM16.7628 23.7297V16.9668V16.6105C21.442 16.8846 26.3479 15.4945 30.3111 12.9564C31.8804 14.6413 32.7302 15.5251 33.0043 15.8613C33.0043 16.7117 33.0043 22.7562 33.0043 23.7296C33.0043 28.1301 29.4161 31.7187 25.015 31.7187C20.0729 31.7188 16.7628 27.885 16.7628 23.7297ZM19.5978 44.4085L16.4111 38.0217L19.4886 36.8297L23.4257 41.6896C21.4235 43.1114 19.7795 44.2795 19.5978 44.4085ZM20.8415 66.7304L23.9791 48.1924H26.0128L29.1505 66.7304L24.9961 71.3009L20.8415 66.7304Z" fill="#1D80EB"/>
</svg>
