<svg width="88" height="103" viewBox="0 0 88 103" fill="none" xmlns="http://www.w3.org/2000/svg">
<g opacity="0.3">
<path d="M62.0213 0C56.3822 0.380803 49.7911 3.90485 45.9501 8.49385C42.4463 12.6569 39.5639 18.8401 40.6878 24.849C46.8492 25.0362 53.2155 21.4283 56.9044 16.7618C60.3554 12.4181 62.9667 6.27358 62.0213 0Z" fill="black"/>
<path d="M84.1518 35.1428C78.932 28.6335 71.5962 24.856 64.6683 24.856C55.5225 24.856 51.6539 29.2103 45.2996 29.2103C38.7478 29.2103 33.7702 24.8686 25.8608 24.8686C18.0916 24.8686 9.819 29.5906 4.5737 37.6654C-2.8003 49.0361 -1.53838 70.4148 10.4117 88.6243C14.6883 95.14 20.3988 102.467 27.8684 102.53C34.5159 102.594 36.3896 98.29 45.3952 98.2457C54.4008 98.195 56.1089 102.587 62.7436 102.518C70.2196 102.461 76.2424 94.3414 80.5189 87.8257C83.5845 83.1545 84.7254 80.803 87.1027 75.5297C69.8117 68.9823 67.0392 44.5296 84.1518 35.1428Z" fill="black"/>
</g>
</svg>
