<svg width="76" height="76" viewBox="0 0 76 76" fill="none" xmlns="http://www.w3.org/2000/svg">
<circle cx="38" cy="38" r="38" fill="#236CF2"/>
<path d="M25.8906 44H16.3301V42.3691L21.0664 37.2031C21.75 36.4414 22.235 35.8066 22.5215 35.2988C22.8145 34.7845 22.9609 34.2702 22.9609 33.7559C22.9609 33.0788 22.7689 32.5319 22.3848 32.1152C22.0072 31.6986 21.4961 31.4902 20.8516 31.4902C20.0833 31.4902 19.4876 31.7246 19.0645 32.1934C18.6413 32.6621 18.4297 33.3034 18.4297 34.1172H16.0566C16.0566 33.2513 16.252 32.4733 16.6426 31.7832C17.0397 31.0866 17.6029 30.5462 18.332 30.1621C19.0677 29.778 19.9141 29.5859 20.8711 29.5859C22.2513 29.5859 23.3385 29.9342 24.1328 30.6309C24.9336 31.321 25.334 32.278 25.334 33.502C25.334 34.2116 25.1322 34.957 24.7285 35.7383C24.3314 36.513 23.6771 37.3952 22.7656 38.3848L19.2891 42.1055H25.8906V44ZM36.9648 38.0137C36.9648 40.0579 36.5807 41.6009 35.8125 42.6426C35.0508 43.6777 33.8887 44.1953 32.3262 44.1953C30.7897 44.1953 29.6309 43.6908 28.8496 42.6816C28.0749 41.666 27.6777 40.1654 27.6582 38.1797V35.7188C27.6582 33.6745 28.0391 32.1413 28.8008 31.1191C29.569 30.097 30.7376 29.5859 32.3066 29.5859C33.8626 29.5859 35.0215 30.084 35.7832 31.0801C36.5514 32.0762 36.9453 33.5671 36.9648 35.5527V38.0137ZM34.5918 35.3574C34.5918 34.0228 34.4095 33.0462 34.0449 32.4277C33.6803 31.8027 33.1009 31.4902 32.3066 31.4902C31.5319 31.4902 30.9622 31.7865 30.5977 32.3789C30.2331 32.9648 30.041 33.8828 30.0215 35.1328V38.3555C30.0215 39.6836 30.207 40.6732 30.5781 41.3242C30.9492 41.9753 31.5319 42.3008 32.3262 42.3008C33.0879 42.3008 33.651 42.0013 34.0156 41.4023C34.3802 40.7969 34.5723 39.8529 34.5918 38.5703V35.3574ZM45.4902 44H43.127V32.584L39.6406 33.7754V31.7734L45.1875 29.7324H45.4902V44ZM59.9922 44H50.4316V42.3691L55.168 37.2031C55.8516 36.4414 56.3366 35.8066 56.623 35.2988C56.916 34.7845 57.0625 34.2702 57.0625 33.7559C57.0625 33.0788 56.8704 32.5319 56.4863 32.1152C56.1087 31.6986 55.5977 31.4902 54.9531 31.4902C54.1849 31.4902 53.5892 31.7246 53.166 32.1934C52.7428 32.6621 52.5312 33.3034 52.5312 34.1172H50.1582C50.1582 33.2513 50.3535 32.4733 50.7441 31.7832C51.1413 31.0866 51.7044 30.5462 52.4336 30.1621C53.1693 29.778 54.0156 29.5859 54.9727 29.5859C56.3529 29.5859 57.4401 29.9342 58.2344 30.6309C59.0352 31.321 59.4355 32.278 59.4355 33.502C59.4355 34.2116 59.2337 34.957 58.8301 35.7383C58.4329 36.513 57.7786 37.3952 56.8672 38.3848L53.3906 42.1055H59.9922V44Z" fill="white"/>
</svg>
