<svg width="76" height="76" viewBox="0 0 76 76" fill="none" xmlns="http://www.w3.org/2000/svg">
<circle cx="38" cy="38" r="38" fill="#2568E3"/>
<path d="M25.8906 44H16.3301V42.3691L21.0664 37.2031C21.75 36.4414 22.235 35.8066 22.5215 35.2988C22.8145 34.7845 22.9609 34.2702 22.9609 33.7559C22.9609 33.0788 22.7689 32.5319 22.3848 32.1152C22.0072 31.6986 21.4961 31.4902 20.8516 31.4902C20.0833 31.4902 19.4876 31.7246 19.0645 32.1934C18.6413 32.6621 18.4297 33.3034 18.4297 34.1172H16.0566C16.0566 33.2513 16.252 32.4733 16.6426 31.7832C17.0397 31.0866 17.6029 30.5462 18.332 30.1621C19.0677 29.778 19.9141 29.5859 20.8711 29.5859C22.2513 29.5859 23.3385 29.9342 24.1328 30.6309C24.9336 31.321 25.334 32.278 25.334 33.502C25.334 34.2116 25.1322 34.957 24.7285 35.7383C24.3314 36.513 23.6771 37.3952 22.7656 38.3848L19.2891 42.1055H25.8906V44ZM36.9648 38.0137C36.9648 40.0579 36.5807 41.6009 35.8125 42.6426C35.0508 43.6777 33.8887 44.1953 32.3262 44.1953C30.7897 44.1953 29.6309 43.6908 28.8496 42.6816C28.0749 41.666 27.6777 40.1654 27.6582 38.1797V35.7188C27.6582 33.6745 28.0391 32.1413 28.8008 31.1191C29.569 30.097 30.7376 29.5859 32.3066 29.5859C33.8626 29.5859 35.0215 30.084 35.7832 31.0801C36.5514 32.0762 36.9453 33.5671 36.9648 35.5527V38.0137ZM34.5918 35.3574C34.5918 34.0228 34.4095 33.0462 34.0449 32.4277C33.6803 31.8027 33.1009 31.4902 32.3066 31.4902C31.5319 31.4902 30.9622 31.7865 30.5977 32.3789C30.2331 32.9648 30.041 33.8828 30.0215 35.1328V38.3555C30.0215 39.6836 30.207 40.6732 30.5781 41.3242C30.9492 41.9753 31.5319 42.3008 32.3262 42.3008C33.0879 42.3008 33.651 42.0013 34.0156 41.4023C34.3802 40.7969 34.5723 39.8529 34.5918 38.5703V35.3574ZM45.4902 44H43.127V32.584L39.6406 33.7754V31.7734L45.1875 29.7324H45.4902V44ZM51.0664 36.9492L51.8379 29.7812H59.4746V31.832H53.8105L53.4199 35.2305C54.0775 34.8529 54.8197 34.6641 55.6465 34.6641C57.0007 34.6641 58.0521 35.097 58.8008 35.9629C59.556 36.8288 59.9336 37.9941 59.9336 39.459C59.9336 40.9043 59.5169 42.0566 58.6836 42.916C57.8503 43.7689 56.7077 44.1953 55.2559 44.1953C53.9538 44.1953 52.873 43.8275 52.0137 43.0918C51.1608 42.3496 50.6986 41.373 50.627 40.1621H52.9219C53.013 40.8522 53.2604 41.3828 53.6641 41.7539C54.0677 42.1185 54.5951 42.3008 55.2461 42.3008C55.9753 42.3008 56.5417 42.0404 56.9453 41.5195C57.3555 40.9987 57.5605 40.2891 57.5605 39.3906C57.5605 38.5247 57.3359 37.8411 56.8867 37.3398C56.4375 36.832 55.819 36.5781 55.0312 36.5781C54.6016 36.5781 54.237 36.6367 53.9375 36.7539C53.638 36.8646 53.3125 37.0859 52.9609 37.418L51.0664 36.9492Z" fill="white"/>
</svg>
