<svg width="76" height="76" viewBox="0 0 76 76" fill="none" xmlns="http://www.w3.org/2000/svg">
<circle cx="38" cy="38" r="38" fill="#203E75"/>
<path d="M25.625 44H16.0645V42.3691L20.8008 37.2031C21.4844 36.4414 21.9694 35.8066 22.2559 35.2988C22.5488 34.7845 22.6953 34.2702 22.6953 33.7559C22.6953 33.0788 22.5033 32.5319 22.1191 32.1152C21.7415 31.6986 21.2305 31.4902 20.5859 31.4902C19.8177 31.4902 19.222 31.7246 18.7988 32.1934C18.3757 32.6621 18.1641 33.3034 18.1641 34.1172H15.791C15.791 33.2513 15.9863 32.4733 16.377 31.7832C16.7741 31.0866 17.3372 30.5462 18.0664 30.1621C18.8021 29.778 19.6484 29.5859 20.6055 29.5859C21.9857 29.5859 23.0729 29.9342 23.8672 30.6309C24.668 31.321 25.0684 32.278 25.0684 33.502C25.0684 34.2116 24.8665 34.957 24.4629 35.7383C24.0658 36.513 23.4115 37.3952 22.5 38.3848L19.0234 42.1055H25.625V44ZM36.6992 38.0137C36.6992 40.0579 36.3151 41.6009 35.5469 42.6426C34.7852 43.6777 33.623 44.1953 32.0605 44.1953C30.5241 44.1953 29.3652 43.6908 28.584 42.6816C27.8092 41.666 27.4121 40.1654 27.3926 38.1797V35.7188C27.3926 33.6745 27.7734 32.1413 28.5352 31.1191C29.3034 30.097 30.472 29.5859 32.041 29.5859C33.597 29.5859 34.7559 30.084 35.5176 31.0801C36.2858 32.0762 36.6797 33.5671 36.6992 35.5527V38.0137ZM34.3262 35.3574C34.3262 34.0228 34.1439 33.0462 33.7793 32.4277C33.4147 31.8027 32.8353 31.4902 32.041 31.4902C31.2663 31.4902 30.6966 31.7865 30.332 32.3789C29.9674 32.9648 29.7754 33.8828 29.7559 35.1328V38.3555C29.7559 39.6836 29.9414 40.6732 30.3125 41.3242C30.6836 41.9753 31.2663 42.3008 32.0605 42.3008C32.8223 42.3008 33.3854 42.0013 33.75 41.4023C34.1146 40.7969 34.3066 39.8529 34.3262 38.5703V35.3574ZM48.0664 38.0137C48.0664 40.0579 47.6823 41.6009 46.9141 42.6426C46.1523 43.6777 44.9902 44.1953 43.4277 44.1953C41.8913 44.1953 40.7324 43.6908 39.9512 42.6816C39.1764 41.666 38.7793 40.1654 38.7598 38.1797V35.7188C38.7598 33.6745 39.1406 32.1413 39.9023 31.1191C40.6706 30.097 41.8392 29.5859 43.4082 29.5859C44.9642 29.5859 46.123 30.084 46.8848 31.0801C47.653 32.0762 48.0469 33.5671 48.0664 35.5527V38.0137ZM45.6934 35.3574C45.6934 34.0228 45.5111 33.0462 45.1465 32.4277C44.7819 31.8027 44.2025 31.4902 43.4082 31.4902C42.6335 31.4902 42.0638 31.7865 41.6992 32.3789C41.3346 32.9648 41.1426 33.8828 41.123 35.1328V38.3555C41.123 39.6836 41.3086 40.6732 41.6797 41.3242C42.0508 41.9753 42.6335 42.3008 43.4277 42.3008C44.1895 42.3008 44.7526 42.0013 45.1172 41.4023C45.4818 40.7969 45.6738 39.8529 45.6934 38.5703V35.3574ZM59.4336 38.0137C59.4336 40.0579 59.0495 41.6009 58.2812 42.6426C57.5195 43.6777 56.3574 44.1953 54.7949 44.1953C53.2585 44.1953 52.0996 43.6908 51.3184 42.6816C50.5436 41.666 50.1465 40.1654 50.127 38.1797V35.7188C50.127 33.6745 50.5078 32.1413 51.2695 31.1191C52.0378 30.097 53.2064 29.5859 54.7754 29.5859C56.3314 29.5859 57.4902 30.084 58.252 31.0801C59.0202 32.0762 59.4141 33.5671 59.4336 35.5527V38.0137ZM57.0605 35.3574C57.0605 34.0228 56.8783 33.0462 56.5137 32.4277C56.1491 31.8027 55.5697 31.4902 54.7754 31.4902C54.0007 31.4902 53.431 31.7865 53.0664 32.3789C52.7018 32.9648 52.5098 33.8828 52.4902 35.1328V38.3555C52.4902 39.6836 52.6758 40.6732 53.0469 41.3242C53.418 41.9753 54.0007 42.3008 54.7949 42.3008C55.5566 42.3008 56.1198 42.0013 56.4844 41.4023C56.849 40.7969 57.041 39.8529 57.0605 38.5703V35.3574Z" fill="white"/>
</svg>
