<svg width="34" height="35" viewBox="0 0 34 35" fill="none" xmlns="http://www.w3.org/2000/svg">
<path fill-rule="evenodd" clip-rule="evenodd" d="M17 0.991577C21.5409 0.991577 25.8099 2.7549 29.0208 5.95662C32.2317 9.15847 34 13.4154 34 17.9435C34 22.4715 32.2317 26.7284 29.0208 29.9302C25.8099 33.132 21.5409 34.8953 17 34.8953C12.4591 34.8953 8.19002 33.132 4.97914 29.9302C1.76827 26.7284 0 22.4715 0 17.9435C0 13.4154 1.76827 9.15841 4.97914 5.95662C8.18995 2.7549 12.4591 0.991577 17 0.991577ZM1.99219 17.9434C1.99219 26.1953 8.72465 32.9087 17 32.9087C25.2753 32.9087 32.0078 26.1953 32.0078 17.9434C32.0078 9.69143 25.2753 2.97803 17 2.97803C8.72465 2.97803 1.99219 9.69143 1.99219 17.9434Z" fill="#203E75"/>
<path d="M25.1214 12.5045C24.7325 12.1167 24.1017 12.1167 23.7128 12.5046L14.9167 21.2758L10.2864 16.6586C9.89743 16.2707 9.2667 16.2707 8.87769 16.6586C8.48869 17.0464 8.48869 17.6754 8.87769 18.0633L14.2123 23.3828C14.4068 23.5767 14.6617 23.6737 14.9166 23.6737C15.1715 23.6737 15.4265 23.5767 15.6209 23.3828L25.1214 13.9092C25.5104 13.5214 25.5104 12.8924 25.1214 12.5045Z" fill="#203E75"/>
</svg>
