<svg width="77" height="77" viewBox="0 0 77 77" fill="none" xmlns="http://www.w3.org/2000/svg">
<path d="M27.7769 31.2881C25.2399 31.2881 23.176 33.3521 23.176 35.8891C23.176 38.426 25.2399 40.49 27.7769 40.49C30.3138 40.49 32.3778 38.426 32.3778 35.8891C32.3778 33.3521 30.3138 31.2881 27.7769 31.2881ZM27.7769 38.234C26.4838 38.234 25.432 37.1821 25.432 35.8891C25.432 34.596 26.4838 33.5442 27.7769 33.5442C29.0698 33.5442 30.1218 34.596 30.1218 35.8891C30.1218 37.182 29.0698 38.234 27.7769 38.234Z" fill="#1D80EB"/>
<path d="M39.7718 31.2881C37.2349 31.2881 35.1708 33.3521 35.1708 35.8891C35.1708 38.426 37.2349 40.49 39.7718 40.49C42.3088 40.49 44.3727 38.426 44.3727 35.8891C44.3727 33.3521 42.3088 31.2881 39.7718 31.2881ZM39.7718 38.234C38.4786 38.234 37.4268 37.1821 37.4268 35.8891C37.4268 34.596 38.4788 33.5442 39.7718 33.5442C41.0649 33.5442 42.1167 34.596 42.1167 35.8891C42.1167 37.1821 41.0647 38.234 39.7718 38.234Z" fill="#1D80EB"/>
<path d="M51.7669 31.2881C49.2299 31.2881 47.166 33.3521 47.166 35.8891C47.166 38.426 49.2299 40.49 51.7669 40.49C54.3038 40.49 56.3678 38.426 56.3678 35.8891C56.3678 33.3521 54.3037 31.2881 51.7669 31.2881ZM51.7669 38.234C50.4738 38.234 49.422 37.1821 49.422 35.8891C49.422 34.596 50.474 33.5442 51.7669 33.5442C53.0598 33.5442 54.1118 34.596 54.1118 35.8891C54.1118 37.1821 53.0598 38.234 51.7669 38.234Z" fill="#1D80EB"/>
<path d="M27.7769 42.5111C25.2399 42.5111 23.176 44.575 23.176 47.112C23.176 49.6489 25.2399 51.7129 27.7769 51.7129C30.3138 51.7129 32.3778 49.6489 32.3778 47.112C32.3778 44.575 30.3138 42.5111 27.7769 42.5111ZM27.7769 49.4569C26.4838 49.4569 25.432 48.405 25.432 47.112C25.432 45.8189 26.4838 44.7671 27.7769 44.7671C29.0698 44.7671 30.1218 45.8189 30.1218 47.112C30.1218 48.405 29.0698 49.4569 27.7769 49.4569Z" fill="#1D80EB"/>
<path d="M51.7669 42.5111C49.2299 42.5111 47.166 44.575 47.166 47.112C47.166 49.6489 49.2299 51.7129 51.7669 51.7129C54.3038 51.7129 56.3678 49.6489 56.3678 47.112C56.3676 44.575 54.3037 42.5111 51.7669 42.5111ZM51.7669 49.4569C50.4738 49.4569 49.422 48.405 49.422 47.112C49.422 45.8189 50.474 44.7671 51.7669 44.7671C53.0598 44.7671 54.1118 45.8189 54.1118 47.112C54.1116 48.405 53.0598 49.4569 51.7669 49.4569Z" fill="#1D80EB"/>
<path d="M39.7718 42.5111C37.2349 42.5111 35.1708 44.575 35.1708 47.112C35.1708 49.6489 37.2349 51.7129 39.7718 51.7129C42.3088 51.7129 44.3727 49.6489 44.3727 47.112C44.3727 44.575 42.3088 42.5111 39.7718 42.5111ZM39.7718 49.4569C38.4786 49.4569 37.4268 48.405 37.4268 47.112C37.4268 45.8189 38.4788 44.7671 39.7718 44.7671C41.0649 44.7671 42.1167 45.8189 42.1167 47.112C42.1167 48.405 41.0647 49.4569 39.7718 49.4569Z" fill="#1D80EB"/>
<path d="M39.7719 53.734C37.2349 53.734 35.171 55.7981 35.171 58.335C35.171 60.872 37.2349 62.9359 39.7719 62.9359C42.3088 62.9359 44.3728 60.872 44.3728 58.335C44.3728 55.7981 42.3088 53.734 39.7719 53.734ZM39.7719 60.6798C38.4787 60.6798 37.4268 59.6279 37.4268 58.3349C37.427 57.042 38.4788 55.9898 39.7719 55.9898C41.0649 55.9898 42.1168 57.0417 42.1168 58.3349C42.1168 59.6279 41.0648 60.6798 39.7719 60.6798Z" fill="#1D80EB"/>
<path d="M27.7769 53.734C25.2399 53.734 23.176 55.7981 23.176 58.335C23.176 60.872 25.2399 62.9359 27.7769 62.9359C30.3138 62.9359 32.3778 60.872 32.3778 58.335C32.3778 55.7981 30.3138 53.734 27.7769 53.734ZM27.7769 60.6798C26.4838 60.6798 25.432 59.6279 25.432 58.3349C25.432 57.0418 26.4838 55.9898 27.7769 55.9898C29.0698 55.9898 30.1218 57.0417 30.1218 58.3349C30.1216 59.6279 29.0698 60.6798 27.7769 60.6798Z" fill="#1D80EB"/>
<path d="M17.3773 35.8892L19.0355 34.231C19.476 33.7905 19.476 33.0765 19.0354 32.6358C18.595 32.1955 17.8808 32.1953 17.4402 32.636L15.7821 34.294L14.1241 32.636C13.6836 32.1955 12.9694 32.1953 12.5289 32.6358C12.0882 33.0765 12.0882 33.7905 12.5287 34.231L14.1869 35.8892L12.5287 37.5475C12.0879 37.9878 12.0879 38.7019 12.5286 39.1427C12.7488 39.3628 13.0375 39.4729 13.3261 39.4729C13.6147 39.4729 13.9035 39.3628 14.1238 39.1425L15.7818 37.4844L17.4399 39.1425C17.6602 39.3628 17.9488 39.4729 18.2376 39.4729C18.5262 39.4729 18.8149 39.3628 19.0351 39.1427C19.4757 38.702 19.4757 37.9879 19.0352 37.5475L17.3773 35.8892Z" fill="#1D80EB"/>
<path d="M17.3773 47.1121L19.0355 45.4539C19.476 45.0134 19.476 44.2994 19.0354 43.8587C18.595 43.4184 17.8808 43.4182 17.4402 43.8589L15.7821 45.5169L14.1241 43.8589C13.6836 43.4182 12.9694 43.4184 12.5289 43.8587C12.0882 44.2994 12.0882 45.0134 12.5287 45.4539L14.1869 47.1121L12.5287 48.7703C12.0879 49.2106 12.0879 49.9247 12.5286 50.3655C12.7488 50.5857 13.0375 50.6958 13.3261 50.6958C13.6147 50.6958 13.9035 50.5857 14.1238 50.3653L15.7818 48.7073L17.4399 50.3653C17.6602 50.5857 17.9488 50.6958 18.2376 50.6958C18.5262 50.6958 18.8149 50.5857 19.0351 50.3655C19.4757 49.9249 19.4757 49.2108 19.0352 48.7703L17.3773 47.1121Z" fill="#1D80EB"/>
<path d="M19.0353 59.9928L17.3773 58.3347L19.0353 56.6767C19.4755 56.2362 19.4755 55.5221 19.035 55.0813C18.5944 54.641 17.8803 54.641 17.4397 55.0813L15.7816 56.7394L14.1236 55.0813C13.6829 54.641 12.9689 54.641 12.5282 55.0813C12.0878 55.522 12.0878 56.236 12.5282 56.6767L14.1863 58.3347L12.5282 59.9928C12.0878 60.4334 12.0878 61.1475 12.5282 61.5881C12.7486 61.8083 13.0373 61.9184 13.3259 61.9184C13.6145 61.9184 13.9033 61.8083 14.1236 61.5881L15.7816 59.9301L17.4397 61.5881C17.66 61.8083 17.9488 61.9184 18.2374 61.9184C18.526 61.9184 18.8147 61.8083 19.035 61.5881C19.4758 61.1473 19.4758 60.4333 19.0353 59.9928Z" fill="#1D80EB"/>
<path d="M76.9352 63.3486L73.8589 47.1598C73.7427 46.5478 73.1509 46.146 72.54 46.2623C71.9281 46.3785 71.5262 46.9689 71.6425 47.5812L74.7187 63.77C74.8908 64.6761 74.1257 65.5314 73.0837 65.5314H56.3918L67.2184 54.7049C67.4165 54.5068 67.5487 54.2175 67.5487 53.9072V26.0376L70.6421 42.3171C70.7583 42.929 71.3494 43.331 71.9609 43.2146C72.5728 43.0983 72.9746 42.5079 72.8584 41.8957L67.5413 13.9144C67.4648 12.2498 66.0905 10.9182 64.4075 10.9182H54.5223V7.29123C54.5223 6.66816 54.0175 6.1633 53.3944 6.1633C52.7713 6.1633 52.2665 6.66816 52.2665 7.29123V10.918H44.7123V7.29123C44.7123 6.66816 44.2075 6.1633 43.5844 6.1633C42.9613 6.1633 42.4565 6.66816 42.4565 7.29123V10.918H34.9022V7.29123C34.9022 6.66816 34.3973 6.1633 33.7743 6.1633C33.1512 6.1633 32.6463 6.66816 32.6463 7.29123V10.918H25.0922V7.29123C25.0922 6.66816 24.5874 6.1633 23.9643 6.1633C23.3412 6.1633 22.8364 6.66816 22.8364 7.29123V10.918H15.2822V7.29123C15.2822 6.66816 14.7774 6.1633 14.1543 6.1633C13.5312 6.1633 13.0264 6.66816 13.0264 7.29123V10.918H3.14121C1.40916 10.9182 0 12.3272 0 14.0594V67.6956C0 69.4277 1.40916 70.8367 3.14121 70.8367H31.1424C31.7655 70.8367 32.2704 70.3318 32.2704 69.7088C32.2704 69.0857 31.7655 68.5808 31.1424 68.5808H3.14121C2.65319 68.5808 2.25601 68.1838 2.25601 67.6958V25.5635H65.2928V52.7788H52.6321C50.9 52.7788 49.491 54.188 49.491 55.92V68.5807H36.4063C35.7832 68.5807 35.2783 69.0855 35.2783 69.7086C35.2783 70.3317 35.7832 70.8365 36.4063 70.8365H50.6189C50.9099 70.8365 51.2017 70.7212 51.4166 70.5063L54.1357 67.7872H73.0838C75.5337 67.7872 77.3734 65.6544 76.9352 63.3486ZM2.25601 23.3075V14.0594C2.25601 13.5714 2.65319 13.1742 3.14121 13.1742H13.0264V18.2409C13.0264 18.8639 13.5312 19.3688 14.1543 19.3688C14.7774 19.3688 15.2822 18.8639 15.2822 18.2409V13.1742H22.8364V18.2409C22.8364 18.8639 23.3412 19.3688 23.9643 19.3688C24.5874 19.3688 25.0922 18.8639 25.0922 18.2409V13.1742H32.6463V18.2409C32.6463 18.8639 33.1512 19.3688 33.7743 19.3688C34.3973 19.3688 34.9022 18.8639 34.9022 18.2409V13.1742H42.4565V18.2409C42.4565 18.8639 42.9613 19.3688 43.5844 19.3688C44.2075 19.3688 44.7123 18.8639 44.7123 18.2409V13.1742H52.2665V18.2409C52.2665 18.8639 52.7713 19.3688 53.3944 19.3688C54.0175 19.3688 54.5223 18.8639 54.5223 18.2409V13.1742H64.4075C64.8955 13.1742 65.2927 13.5714 65.2927 14.0594V23.3077H2.25601V23.3075ZM51.7469 66.9855V55.9202C51.7469 55.4322 52.1439 55.035 52.6319 55.035H63.6973C62.5687 56.1638 52.8779 65.8544 51.7469 66.9855Z" fill="#1D80EB"/>
</svg>
