<svg width="87" height="87" viewBox="0 0 87 87" fill="none" xmlns="http://www.w3.org/2000/svg">
<g opacity="0.3">
<path d="M43.5292 0.0310059C19.6522 0.0310059 0.0576172 19.6256 0.0576172 43.5026C0.0576172 63.8779 14.3549 82.3867 33.3406 86.9742V72.592C31.4594 73.004 29.7281 73.0159 27.8131 72.4514C25.244 71.6932 23.1566 69.9818 21.607 67.3723C20.6193 65.7061 18.8688 63.8992 17.0427 64.0318L16.5949 58.9574C20.5437 58.6191 23.9598 61.3633 25.9876 64.7701C26.8884 66.2851 27.9252 67.1733 29.2558 67.566C30.542 67.9448 31.923 67.763 33.5323 67.1946C33.9362 63.9728 35.4121 62.7669 36.5272 61.0688V61.0661C25.2042 59.3773 20.6916 53.3702 18.9007 48.6288C16.5273 42.3332 17.8009 34.4681 21.9977 29.4979C22.0793 29.401 22.2266 29.1476 22.1695 28.9705C20.2452 23.1578 22.5901 18.3494 22.6763 17.8393C24.8971 18.496 25.258 17.1786 32.323 21.471L33.5442 22.2046C34.055 22.5091 33.8944 22.3353 34.4052 22.2968C37.355 21.4955 40.4647 21.0531 43.5286 21.0133C46.6157 21.0531 49.7054 21.4955 52.7773 22.3293L53.1726 22.3691C53.1381 22.3638 53.2801 22.3439 53.5182 22.202C62.3438 16.8562 62.0267 18.6034 64.3934 17.834C64.479 18.3447 66.7927 23.2314 64.8889 28.9705C64.6322 29.7612 72.5404 37.0027 68.1571 48.6268C66.3661 53.3702 61.8542 59.3773 50.5313 61.0661V61.0688C51.9826 63.2809 53.7265 64.4577 53.7172 69.0214V86.9742C72.7035 82.3867 87.0002 63.8779 87.0002 43.5026C87.0008 19.6256 67.4062 0.0310059 43.5292 0.0310059Z" fill="black"/>
</g>
</svg>
