<svg width="129" height="78" viewBox="0 0 129 78" fill="none" xmlns="http://www.w3.org/2000/svg">
<path d="M112.26 28.9279V12.8584H104.13V28.9279H87.8695V36.9626H104.13V53.032H112.26V36.9626H128.52V28.9279H112.26Z" fill="#0057FF"/>
<path d="M39.4011 31.4008V46.8522H61.5168C58.2882 55.845 49.5951 62.3036 39.4011 62.3036C26.471 62.3036 15.9487 51.9048 15.9487 39.1265C15.9487 26.3482 26.471 15.9494 39.4011 15.9494C45.0063 15.9494 50.4003 17.9349 54.5905 21.5428L64.8627 9.8925C57.827 3.83555 48.7899 0.498047 39.4011 0.498047C17.8483 0.498047 0.313721 17.8268 0.313721 39.1265C0.313721 60.4263 17.8483 77.755 39.4011 77.755C60.954 77.755 78.4886 60.4263 78.4886 39.1265V31.4008H39.4011Z" fill="#0057FF"/>
</svg>
