<svg width="14" height="21" viewBox="0 0 14 21" fill="none" xmlns="http://www.w3.org/2000/svg">
<path d="M7 0C3.14027 0 0 3.14028 0 7.00001C0 8.15871 0.289693 9.30755 0.840408 10.3265L6.6172 20.7744C6.69411 20.9137 6.84065 21 7 21C7.15935 21 7.30589 20.9137 7.3828 20.7744L13.1617 10.3231C13.7103 9.30755 14 8.15866 14 6.99997C14 3.14028 10.8597 0 7 0ZM7 10.5C5.07014 10.5 3.50002 8.92988 3.50002 7.00001C3.50002 5.07015 5.07014 3.50003 7 3.50003C8.92986 3.50003 10.5 5.07015 10.5 7.00001C10.5 8.92988 8.92986 10.5 7 10.5Z" fill="#203E75"/>
</svg>
