<svg width="72" height="72" viewBox="0 0 72 72" fill="none" xmlns="http://www.w3.org/2000/svg">
<g clip-path="url(#clip0_220_2289)">
<path d="M67.5497 31.2401C67.5497 29.7278 66.3195 28.4978 64.8074 28.4978H47.5322C46.02 28.4978 44.7898 29.728 44.7898 31.2401V34.7638C44.7898 35.4004 45.0098 35.9855 45.375 36.4514C45.0096 36.9173 44.7898 37.5023 44.7898 38.1391V41.6626C44.7898 41.9178 44.8275 42.164 44.8931 42.3986C44.6583 42.3331 44.4123 42.2954 44.157 42.2954H37.9805C37.398 42.2954 36.9258 42.7676 36.9258 43.3501C36.9258 43.9325 37.398 44.4047 37.9805 44.4047H44.157C44.5 44.4047 44.7898 44.6946 44.7898 45.0376V48.5612C44.7898 48.9042 44.5 49.194 44.157 49.194H26.8817C26.5387 49.194 26.2488 48.9042 26.2488 48.5612V45.0376C26.2488 44.6946 26.5387 44.4047 26.8817 44.4047H33.0583C33.6408 44.4047 34.113 43.9325 34.113 43.3501C34.113 42.7676 33.6408 42.2954 33.0583 42.2954H26.8817C25.3695 42.2954 24.1393 43.5257 24.1393 45.0377V48.5613C24.1393 49.1979 24.3593 49.7831 24.7245 50.249C24.3591 50.7149 24.1393 51.2999 24.1393 51.9366V55.4603C24.1393 55.7155 24.177 55.9617 24.2425 56.1963C24.0078 56.1308 23.7618 56.0931 23.5065 56.0931H6.23116C4.71902 56.0931 3.48883 57.3234 3.48883 58.8354V62.3589C3.48883 62.9955 3.70877 63.5806 4.07397 64.0465C3.70863 64.5124 3.48883 65.0974 3.48883 65.7342V69.2578C3.48883 70.77 4.71916 72.0001 6.23116 72.0001H23.5062C24.1428 72.0001 24.728 71.7802 25.1939 71.415C25.6598 71.7803 26.2448 72.0001 26.8815 72.0001H44.1567C44.7933 72.0001 45.3785 71.7802 45.8444 71.415C46.3103 71.7803 46.8953 72.0001 47.532 72.0001H64.8072C66.3194 72.0001 67.5496 70.77 67.5496 69.2578V65.7342C67.5496 65.0976 67.3296 64.5124 66.9644 64.0465C67.3298 63.5806 67.5496 62.9956 67.5496 62.3589V58.8354C67.5496 58.1988 67.3296 57.6136 66.9644 57.1478C67.3298 56.6819 67.5496 56.0969 67.5496 55.4601V51.9365C67.5496 51.2999 67.3296 50.7147 66.9644 50.2488C67.3298 49.7829 67.5496 49.1979 67.5496 48.5612V45.0376C67.5496 44.4009 67.3296 43.8158 66.9644 43.3499C67.3298 42.884 67.5496 42.299 67.5496 41.6623V38.1389C67.5496 37.5023 67.3296 36.9172 66.9644 36.4513C67.3298 35.9854 67.5496 35.4004 67.5496 34.7636V31.2401H67.5497ZM24.1392 69.2577C24.1393 69.6007 23.8495 69.8905 23.5065 69.8905H6.23116C5.88817 69.8905 5.59835 69.6007 5.59835 69.2577V65.734C5.59835 65.3911 5.88817 65.1012 6.23116 65.1012H23.5062C23.8492 65.1012 24.139 65.3911 24.139 65.734V69.2577H24.1392ZM24.1392 62.3589C24.1392 62.7019 23.8494 62.9917 23.5064 62.9917H6.23116C5.88817 62.9917 5.59835 62.7019 5.59835 62.3589V58.8353C5.59835 58.4923 5.88817 58.2024 6.23116 58.2024H23.5062C23.8492 58.2024 24.139 58.4923 24.139 58.8353V62.3589H24.1392ZM44.7898 69.2577C44.7898 69.6007 44.5 69.8905 44.157 69.8905H26.8817C26.5387 69.8905 26.2488 69.6007 26.2488 69.2577V65.734C26.2488 65.3911 26.5387 65.1012 26.8817 65.1012H44.1569C44.4999 65.1012 44.7897 65.3911 44.7897 65.734V69.2577H44.7898ZM44.7898 62.3589C44.7898 62.7019 44.5 62.9917 44.157 62.9917H26.8817C26.5385 62.9917 26.2488 62.7019 26.2488 62.3589V58.8353C26.2488 58.4923 26.5387 58.2024 26.8817 58.2024H44.1569C44.4999 58.2024 44.7897 58.4923 44.7897 58.8353V62.3589H44.7898ZM44.7898 55.4601C44.7898 55.8031 44.5 56.0929 44.157 56.0929H26.8817C26.5387 56.0929 26.2488 55.8031 26.2488 55.4601V51.9365C26.2488 51.5935 26.5387 51.3037 26.8817 51.3037H44.1569C44.4999 51.3037 44.7897 51.5935 44.7897 51.9365V55.4601H44.7898ZM46.8993 38.1389C46.8993 37.7959 47.1892 37.5061 47.5322 37.5061H64.8074C65.1504 37.5061 65.4401 37.7958 65.4401 38.1389V41.6624C65.4401 42.0054 65.1502 42.2952 64.8072 42.2952H47.5322C47.1892 42.2952 46.8993 42.0054 46.8993 41.6624V38.1389ZM46.8993 45.0377C46.8993 44.6947 47.1892 44.4049 47.5322 44.4049H64.8074C65.1504 44.4049 65.4401 44.6946 65.4401 45.0377V48.5613C65.4401 48.9043 65.1502 49.1941 64.8072 49.1941H47.5322C47.1892 49.1941 46.8993 48.9043 46.8993 48.5613V45.0377ZM46.8993 51.9365C46.8993 51.5935 47.1892 51.3037 47.5322 51.3037H64.8074C65.1504 51.3037 65.4401 51.5933 65.4401 51.9365V55.4601C65.4401 55.8031 65.1502 56.0929 64.8072 56.0929H47.5322C47.1892 56.0929 46.8993 55.8031 46.8993 55.4601V51.9365ZM46.8993 58.8353C46.8993 58.4923 47.1892 58.2024 47.5322 58.2024H64.8074C65.1504 58.2024 65.4401 58.4921 65.4401 58.8353V62.3589C65.4401 62.7019 65.1502 62.9917 64.8072 62.9917H47.5322C47.1892 62.9917 46.8993 62.7019 46.8993 62.3589V58.8353ZM65.4403 69.2577C65.4402 69.6007 65.1504 69.8905 64.8074 69.8905H47.5322C47.1892 69.8905 46.8993 69.6007 46.8993 69.2577V65.734C46.8993 65.3911 47.1892 65.1012 47.5322 65.1012H64.8074C65.1504 65.1012 65.4402 65.3911 65.4402 65.734V69.2577H65.4403ZM65.4403 34.7638C65.4403 35.1068 65.1505 35.3966 64.8075 35.3966H47.5322C47.1892 35.3966 46.8993 35.1068 46.8993 34.7638V31.2401C46.8993 30.8971 47.1892 30.6073 47.5322 30.6073H64.8074C65.1504 30.6073 65.4402 30.8971 65.4402 31.2401V34.7638H65.4403Z" fill="#1D80EB"/>
<path d="M40.1365 16.9866H35.6361C35.0536 16.9866 34.5814 17.4588 34.5814 18.0413C34.5814 18.6237 35.0536 19.0959 35.6361 19.0959H37.5704L5.42855 51.2378C5.01666 51.6497 5.01666 52.3175 5.42855 52.7294C5.63456 52.9354 5.90442 53.0385 6.17442 53.0385C6.44428 53.0385 6.71428 52.9355 6.92016 52.7295L39.0817 20.568V22.5418C39.0817 23.1243 39.5539 23.5965 40.1363 23.5965C40.7188 23.5965 41.191 23.1243 41.191 22.5418V18.0414C41.1912 17.4589 40.719 16.9866 40.1365 16.9866Z" fill="#1D80EB"/>
<path d="M67.4487 14.5957C66.8888 14.4367 66.3051 14.7617 66.1458 15.3221C64.8856 19.7575 60.7834 22.8554 56.1697 22.8554C50.45 22.8554 45.7968 18.2021 45.7968 12.4824C45.7968 6.76266 50.4502 2.10952 56.1698 2.10952C61.3067 2.10952 65.6152 5.78658 66.4144 10.8525C66.5052 11.4279 67.0459 11.8211 67.6206 11.73C68.1961 11.6393 68.5888 11.0992 68.4981 10.5237C68.04 7.61864 66.555 4.95577 64.3168 3.02555C62.0541 1.07452 59.1609 0 56.1698 0C49.2869 0 43.6874 5.59955 43.6874 12.4824C43.6874 19.3653 49.2869 24.9649 56.1698 24.9649C61.7218 24.9649 66.6588 21.2366 68.1751 15.8985C68.3343 15.3383 68.0091 14.7548 67.4487 14.5957Z" fill="#1D80EB"/>
<path d="M56.0992 4.32294C51.5999 4.32294 47.9394 7.98341 47.9394 12.4826C47.9394 16.9817 51.5999 20.642 56.0992 20.642C60.5985 20.642 64.2586 16.9816 64.2586 12.4826C64.2586 7.98327 60.5985 4.32294 56.0992 4.32294ZM56.0993 18.5325C52.7633 18.5325 50.049 15.8185 50.049 12.4824C50.049 9.14652 52.7631 6.43231 56.0993 6.43231C59.4352 6.43231 62.1494 9.14637 62.1494 12.4824C62.1493 15.8185 59.4352 18.5325 56.0993 18.5325Z" fill="#1D80EB"/>
<path d="M56.6161 11.7137V9.62236C57.06 9.65808 57.2896 9.76341 57.7688 10.0026C58.0092 10.1234 58.3079 10.0773 58.4994 9.75216C58.6544 9.48891 58.7581 9.06886 58.4401 8.8042C57.9874 8.42845 57.1922 8.30935 56.6159 8.30935V7.9973C56.6159 7.81955 56.3963 7.6972 56.212 7.6972C56.0081 7.6972 55.808 7.82138 55.808 7.9942V8.32692C54.4336 8.50805 53.5026 9.24703 53.5026 10.6441C53.5026 12.0751 54.5371 12.5475 55.808 13.0327V15.3973C55.179 15.3215 54.8786 15.0748 54.287 14.6309C53.9914 14.4094 53.7023 14.4932 53.4849 14.7979C53.2067 15.1898 53.2454 15.5314 53.479 15.8464C53.9275 16.4514 54.9031 16.8053 55.8082 16.8053V17.1413C55.8082 17.3219 56.0167 17.4411 56.2122 17.4411C56.3964 17.4411 56.6161 17.3199 56.6161 17.1441V16.7758C57.8163 16.5903 58.862 15.8308 58.862 14.2567C58.8618 12.814 57.9549 12.2007 56.6161 11.7137ZM55.9031 11.4525C55.189 11.1671 54.9525 10.9364 54.9525 10.49C54.9525 9.9728 55.3901 9.73922 55.9031 9.65822V11.4525ZM56.521 15.3857V13.3181C57.2603 13.642 57.4121 13.9944 57.4121 14.4112C57.4121 14.9594 57.0575 15.2721 56.521 15.3857Z" fill="#1D80EB"/>
</g>
<defs>
<clipPath id="clip0_220_2289">
<rect width="72" height="72" fill="white"/>
</clipPath>
</defs>
</svg>
