<svg width="84" height="84" viewBox="0 0 84 84" fill="none" xmlns="http://www.w3.org/2000/svg">
<g clip-path="url(#clip0_219_2215)">
<path d="M58.1887 29.6647H54.4622C54.2346 28.9425 53.9452 28.2433 53.5959 27.5725L56.2308 24.9375C56.5601 24.6082 56.7413 24.1703 56.7413 23.7045C56.7413 23.2386 56.5601 22.8007 56.2308 22.4714L53.1298 19.3703C52.45 18.691 51.3439 18.6906 50.6638 19.3705L48.0288 22.0055C47.358 21.6562 46.6586 21.3666 45.9365 21.1393V17.4126C45.9364 16.4512 45.1541 15.6688 44.1926 15.6688H39.807C38.8456 15.6688 38.0634 16.451 38.0634 17.4126V21.1393C37.3412 21.3668 36.6419 21.6562 35.9709 22.0055L33.3357 19.3703C32.6559 18.6908 31.5498 18.691 30.8699 19.3705L27.7691 22.4713C27.4397 22.8005 27.2582 23.2384 27.2582 23.7044C27.2582 24.1701 27.4397 24.608 27.769 24.9373L30.404 27.5723C30.0547 28.2431 29.7651 28.9425 29.5377 29.6646H25.811C24.8496 29.6646 24.0674 30.4468 24.0674 31.4084V35.7939C24.0674 36.7553 24.8496 37.5376 25.811 37.5376H29.5377C29.7653 38.2596 30.0547 38.9592 30.404 39.6299L27.769 42.2649C27.0891 42.9448 27.0891 44.051 27.769 44.7309L30.8699 47.8318C31.5498 48.5119 32.6562 48.5117 33.3359 47.8318L35.9709 45.1968C36.6418 45.5461 37.3413 45.8357 38.0634 46.0631V49.7898C38.0634 50.7512 38.8456 51.5334 39.807 51.5334H44.1926C45.154 51.5334 45.9364 50.7512 45.9364 49.7898V46.0631C46.6582 45.8357 47.3578 45.5461 48.0287 45.1968L50.6637 47.8318C51.3437 48.5119 52.45 48.5117 53.1298 47.8318L56.2306 44.7309C56.5599 44.4016 56.7412 43.9637 56.7412 43.498C56.7412 43.0322 56.5599 42.5943 56.2306 42.2649L53.5956 39.6299C53.9449 38.959 54.2345 38.2596 54.4619 37.5376H58.1885C59.1499 37.5376 59.9324 36.7553 59.9324 35.7939V31.4084C59.9325 30.447 59.1501 29.6647 58.1887 29.6647ZM57.4717 35.0767H53.5246C52.953 35.0767 52.4567 35.4702 52.3264 36.0269C52.0641 37.1483 51.6237 38.2119 51.0175 39.1879C50.7158 39.6735 50.7885 40.3029 51.1926 40.7073L53.9835 43.4981L51.8969 45.5847L49.1061 42.7938C48.7018 42.3896 48.0725 42.3167 47.5865 42.6186C46.6103 43.2248 45.5467 43.6652 44.4257 43.9277C43.869 44.0578 43.4754 44.554 43.4754 45.1258V49.0731H40.5248V45.1258C40.5248 44.5542 40.1312 44.0579 39.5745 43.9277C38.4535 43.6655 37.3899 43.2251 36.4135 42.6186C35.9281 42.3174 35.2986 42.3896 34.8942 42.7938L32.1033 45.5847L30.0168 43.4981L32.8076 40.7073C33.2119 40.303 33.2844 39.6737 32.9828 39.1879C32.3766 38.2117 31.9363 37.1481 31.674 36.0269C31.5439 35.4702 31.0474 35.0767 30.4758 35.0767H26.5286V32.126H30.4758C31.0474 32.126 31.5437 31.7324 31.674 31.1758C31.9363 30.0546 32.3766 28.9909 32.9828 28.0148C33.2844 27.5291 33.2119 26.8998 32.8076 26.4954L30.0168 23.7045L32.1033 21.618L34.8942 24.4088C35.2981 24.8131 35.9278 24.8858 36.4135 24.5841C37.3896 23.9779 38.4532 23.5375 39.5745 23.2752C40.1312 23.1451 40.5248 22.6488 40.5248 22.077V18.1297H43.4754V22.077C43.4754 22.6486 43.869 23.1449 44.4257 23.2752C45.5469 23.5375 46.6103 23.9779 47.5867 24.5841C48.072 24.8854 48.7016 24.8128 49.1061 24.4088L51.8969 21.618L53.9835 23.7045L51.1926 26.4954C50.7883 26.8996 50.7158 27.529 51.0175 28.0148C51.6236 28.9906 52.0639 30.0542 52.3264 31.1758C52.4567 31.7324 52.9528 32.126 53.5246 32.126H57.4717V35.0767Z" fill="#1D80EB"/>
<path d="M41.9999 27.0092C38.3649 27.0092 35.4078 29.9664 35.4078 33.6012C35.4078 37.236 38.3651 40.1933 41.9999 40.1933C45.6347 40.1933 48.5919 37.236 48.5919 33.6012C48.5919 29.9664 45.6348 27.0092 41.9999 27.0092ZM41.9999 37.7323C39.722 37.7323 37.8688 35.8791 37.8688 33.6012C37.8688 31.3234 39.722 29.4701 41.9999 29.4701C44.2777 29.4701 46.1309 31.3234 46.1309 33.6012C46.1309 35.8791 44.2777 37.7323 41.9999 37.7323Z" fill="#1D80EB"/>
<path d="M13.7113 32.3708H9.62915C8.9496 32.3708 8.39868 32.9217 8.39868 33.6013C8.39868 34.2808 8.9496 34.8317 9.62915 34.8317H13.7113C14.3909 34.8317 14.9418 34.2808 14.9418 33.6013C14.9418 32.9217 14.3909 32.3708 13.7113 32.3708Z" fill="#1D80EB"/>
<path d="M74.3709 32.3708H70.2887C69.609 32.3708 69.0582 32.9217 69.0582 33.6013C69.0582 34.2808 69.609 34.8317 70.2887 34.8317H74.3709C75.0506 34.8317 75.6014 34.2808 75.6014 33.6013C75.6014 32.9217 75.0504 32.3708 74.3709 32.3708Z" fill="#1D80EB"/>
<path d="M22.8669 52.7344C22.3865 52.2538 21.6074 52.2538 21.1267 52.7344L18.2402 55.6209C17.7596 56.1014 17.7596 56.8806 18.2402 57.3611C18.7207 57.8416 19.4998 57.8416 19.9804 57.3611L22.8669 54.4746C23.3474 53.994 23.3474 53.2149 22.8669 52.7344Z" fill="#1D80EB"/>
<path d="M65.7598 9.84173C65.279 9.36119 64.5001 9.36119 64.0194 9.84173L61.1329 12.7282C60.6523 13.2088 60.6523 13.9879 61.1329 14.4684C61.6136 14.949 62.3925 14.9488 62.8732 14.4684L65.7598 11.5819C66.2403 11.1012 66.2403 10.3221 65.7598 9.84173Z" fill="#1D80EB"/>
<path d="M42.0001 0C41.3204 0 40.7697 0.550921 40.7697 1.23047V5.31266C40.7697 5.99221 41.3204 6.54313 42.0001 6.54313C42.6798 6.54313 43.2306 5.99221 43.2306 5.31266V1.23047C43.2306 0.550921 42.6798 0 42.0001 0Z" fill="#1D80EB"/>
<path d="M65.7598 55.6209L62.8732 52.7344C62.3925 52.2538 61.6136 52.2538 61.1329 52.7344C60.6523 53.2149 60.6523 53.9942 61.1329 54.4746L64.0194 57.3611C64.5001 57.8416 65.279 57.8416 65.7598 57.3611C66.2403 56.8806 66.2403 56.1014 65.7598 55.6209Z" fill="#1D80EB"/>
<path d="M22.8669 12.7282L19.9804 9.84173C19.4998 9.36119 18.7207 9.36119 18.2402 9.84173C17.7596 10.3223 17.7596 11.1014 18.2402 11.5819L21.1267 14.4684C21.6072 14.949 22.3863 14.949 22.8669 14.4684C23.3474 13.9877 23.3474 13.2086 22.8669 12.7282Z" fill="#1D80EB"/>
<path d="M66.5484 30.5869C65.2242 19.2872 56.2669 10.329 45.0201 8.95814C44.3466 8.87529 43.7319 9.35615 43.6495 10.0306C43.5673 10.7052 44.0476 11.3188 44.7222 11.4012C54.9362 12.6461 62.9064 20.6535 64.1038 30.8734C64.1772 31.4996 64.7089 31.9606 65.3243 31.9606C65.3722 31.9606 65.4204 31.9579 65.4692 31.9523C66.1444 31.8734 66.6274 31.2621 66.5484 30.5869Z" fill="#1D80EB"/>
<path d="M65.4548 35.2517C64.7795 35.1657 64.1648 35.6436 64.0795 36.3179C63.2406 42.9441 59.5006 48.7908 53.8185 52.3583C51.3689 53.8964 49.9066 56.5286 49.9066 59.3994V64.4635H34.0938V59.2873C34.0938 56.5074 32.641 53.8811 30.3027 52.4336C23.69 48.3403 19.742 41.2598 19.7418 33.4933C19.7418 22.2793 28.1415 12.7824 39.2801 11.4026C39.9546 11.3191 40.4335 10.7045 40.35 10.0301C40.2665 9.35579 39.6522 8.87558 38.9775 8.96024C26.6703 10.4849 17.2802 21.0685 17.2804 33.4933C17.2804 37.7807 18.3955 42.005 20.5055 45.7095C22.5509 49.3008 25.4907 52.3495 29.0069 54.5261C30.6264 55.5285 31.6322 57.3529 31.6322 59.2872V64.6426C30.3811 65.0774 29.4789 66.2655 29.4789 67.6629V69.417C29.4789 70.1597 29.7355 70.8424 30.1616 71.3859C29.7353 71.9295 29.4789 72.612 29.4789 73.3548V75.1088C29.4789 76.873 30.9143 78.3082 32.6783 78.3082H36.5469V81.0899C36.5469 82.6946 37.8523 84 39.4568 84H44.5423C46.147 84 47.4523 82.6946 47.4523 81.0899V78.3082H51.3208C53.085 78.3082 54.5202 76.8728 54.5202 75.1088V73.3548C54.5202 72.6121 54.2636 71.9295 53.8374 71.3859C54.2636 70.8424 54.5202 70.1599 54.5202 69.417V67.6629C54.5202 66.2654 53.6182 65.0774 52.3669 64.6426V59.3992C52.3669 57.3804 53.3984 55.5275 55.1264 54.4426C61.4353 50.4814 65.5883 43.9879 66.5201 36.627C66.6062 35.9527 66.1289 35.337 65.4548 35.2517ZM44.9916 81.0897C44.9916 81.333 44.7861 81.5387 44.5428 81.5387H39.4573C39.214 81.5387 39.0085 81.3332 39.0085 81.0897V78.308H44.9916V81.0897ZM52.0598 75.1087C52.0598 75.5088 51.7216 75.8469 51.3215 75.8469C49.1493 75.8469 34.7286 75.8469 32.6788 75.8469C32.2786 75.8469 31.9405 75.5088 31.9405 75.1087V73.3547C31.9405 72.9545 32.2786 72.6164 32.6788 72.6164H51.3215C51.7216 72.6164 52.0598 72.9545 52.0598 73.3547V75.1087ZM52.0598 69.4168C52.0598 69.817 51.7216 70.1551 51.3215 70.1551H32.6788C32.2786 70.1551 31.9405 69.817 31.9405 69.4168V67.6627C31.9405 67.2625 32.2786 66.9244 32.6788 66.9244H51.3215C51.7216 66.9244 52.0598 67.2625 52.0598 67.6627V69.4168Z" fill="#1D80EB"/>
</g>
<defs>
<clipPath id="clip0_219_2215">
<rect width="84" height="84" fill="white"/>
</clipPath>
</defs>
</svg>
