<svg width="69" height="69" viewBox="0 0 69 69" fill="none" xmlns="http://www.w3.org/2000/svg">
<path d="M64.7378 61.9472C64.6978 61.1518 64.321 60.4066 63.7041 59.9028L52.0153 50.3589C50.8884 49.4388 49.2629 49.5206 48.2339 50.5494L47.9771 50.8063L45.1311 47.9603C48.5237 44.259 50.6632 39.5208 51.1862 34.5094C51.2442 33.9541 50.8411 33.4571 50.2859 33.399C49.7316 33.3405 49.2336 33.7442 49.1757 34.2994C48.1253 44.3642 40.1878 52.336 30.1231 53.4253C29.5681 53.4854 29.1669 53.984 29.227 54.5391C29.2874 55.0969 29.7889 55.4953 30.3409 55.4352C35.3176 54.8965 40.0239 52.7604 43.7018 49.3896L46.5477 52.2357L46.291 52.4925C45.2622 53.5213 45.1804 55.1469 46.1005 56.2738L55.6444 67.9626C56.1482 68.5795 56.8935 68.9563 57.6889 68.9964C57.7361 68.9988 57.7831 68.9999 57.8302 68.9999C58.576 68.9999 59.2971 68.7029 59.8267 68.1731L63.9147 64.0853C64.4777 63.5221 64.7779 62.7427 64.7378 61.9472ZM62.4852 62.6557L58.3973 66.7435C58.235 66.9058 58.0192 66.9893 57.7907 66.977C57.5616 66.9656 57.3555 66.8613 57.2104 66.6837L47.6664 54.9949C47.4053 54.6751 47.4286 54.2138 47.7205 53.9216L49.6635 51.9786C49.9554 51.6867 50.4169 51.6634 50.7368 51.9246L62.4255 61.4684C62.6032 61.6135 62.7075 61.8196 62.7189 62.0487C62.7304 62.278 62.6474 62.4935 62.4852 62.6557Z" fill="#1D80EB"/>
<path d="M51.186 29.5822C50.5296 23.2907 47.3138 17.301 41.976 13.2637V1.50951C41.976 0.677061 41.2989 0 40.4666 0H34.875C34.0426 0 33.3654 0.677061 33.3654 1.50951V7.53042H28.2859C27.6304 7.53042 27.0726 7.95116 26.8645 8.53631C20.9169 8.76325 15.3639 11.1793 11.1422 15.4009C1.96431 24.5789 1.96431 39.5125 11.1422 48.6903C14.9631 52.5112 20.0314 54.9134 25.4135 55.4543C25.967 55.5105 26.4642 55.1064 26.5202 54.5498C26.576 53.9944 26.171 53.4989 25.6156 53.443C20.6963 52.9486 16.0637 50.7532 12.5717 47.261C4.18201 38.8713 4.18201 25.2201 12.5717 16.8303C16.3907 13.0113 21.4022 10.8074 26.7762 10.5616V14.1615H21.8945C21.8941 14.1615 21.8937 14.1615 21.8931 14.1615H21.6965C20.8642 14.1615 20.187 14.8386 20.187 15.6711V15.8519C18.3068 16.7307 16.6099 17.9203 15.1359 19.3945C8.16001 26.3703 8.16001 37.7208 15.1359 44.6968C18.6243 48.1852 23.2049 49.9291 27.7871 49.9287C37.4208 49.9277 45.1623 42.3852 45.6455 32.9743C45.8649 28.7002 44.5638 24.5156 41.976 21.1499V15.8694C46.0564 19.448 48.6181 24.4521 49.1753 29.792C49.2333 30.3473 49.7309 30.7504 50.2855 30.6924C50.8409 30.6346 51.2441 30.1376 51.186 29.5822ZM35.3869 2.02162H39.9544C39.9544 2.80447 39.9544 34.0221 39.9544 35.3929H35.3869C35.3869 33.9811 35.3869 3.43625 35.3869 2.02162ZM28.7978 9.55203H33.3653V35.3929H28.7978C28.7978 35.1318 28.7978 10.2839 28.7978 9.55203ZM22.2088 16.1833H26.7762V35.3929H22.2088C22.2088 34.7435 22.2088 17.1064 22.2088 16.1833ZM20.1873 18.1158V20.4575H16.9458C17.9274 19.5384 19.0121 18.7544 20.1873 18.1158ZM15.6198 22.4791H20.1873V35.3928H15.6198V22.4791ZM13.5982 24.9363V35.3928H12.2794C11.5304 31.8953 11.97 28.1924 13.5982 24.9363ZM41.9761 24.9294C43.6276 28.2069 44.0597 31.9068 43.3079 35.3929H41.9761V24.9294ZM42.7289 37.4145C41.9589 39.5554 40.716 41.5604 39.0089 43.2675C30.8168 51.4593 16.7742 48.3681 12.8551 37.4145C13.7084 37.4145 41.7821 37.4145 42.7289 37.4145Z" fill="#1D80EB"/>
</svg>
