<svg width="6" height="10" viewBox="0 0 6 10" fill="none" xmlns="http://www.w3.org/2000/svg">
<path fill-rule="evenodd" clip-rule="evenodd" d="M0.220242 9.7902C0.150428 9.72386 0.0950384 9.64506 0.0572456 9.5583C0.0194529 9.47154 -2.71655e-08 9.37853 -3.12714e-08 9.28459C-3.53773e-08 9.19066 0.0194528 9.09765 0.0572456 9.01089C0.0950384 8.92413 0.150428 8.84533 0.220242 8.77899L4.18897 4.99981L0.220241 1.22064C0.0794744 1.08654 0.000392101 0.90467 0.000392094 0.715032C0.000392087 0.525393 0.0794744 0.343522 0.220241 0.209427C0.361008 0.0753326 0.55193 -2.41256e-08 0.751004 -3.28275e-08C0.950079 -4.15293e-08 1.141 0.0753326 1.28177 0.209427L5.77976 4.49421C5.84957 4.56054 5.90496 4.63935 5.94275 4.72611C5.98055 4.81287 6 4.90588 6 4.99981C6 5.09374 5.98055 5.18676 5.94275 5.27351C5.90496 5.36028 5.84957 5.43908 5.77976 5.50542L1.28177 9.7902C1.21213 9.8567 1.1294 9.90947 1.03833 9.94547C0.947249 9.98147 0.849612 10 0.751005 10C0.652398 10 0.55476 9.98147 0.463683 9.94547C0.372606 9.90947 0.289879 9.8567 0.220242 9.7902Z" fill="white"/>
</svg>
