<svg width="104" height="67" viewBox="0 0 104 67" fill="none" xmlns="http://www.w3.org/2000/svg">
<g opacity="0.3">
<path fill-rule="evenodd" clip-rule="evenodd" d="M103.803 13.5007H85.5089C66.1122 -3.66691 37.6983 -3.66691 18.3017 13.5007H0.0078125C0.0078125 13.5007 4.15961 18.651 5.84627 23.4712C2.21345 27.9612 0.0078125 33.6397 0.0078125 39.9125C0.0078125 54.505 11.6199 66.3243 25.9565 66.3243C34.4547 66.3243 41.9799 62.0984 46.7155 55.6275L52.1647 66.3243L57.1599 55.6935C61.8955 62.0984 69.3558 66.3243 77.854 66.3243C92.1907 66.3243 103.803 54.505 103.803 39.9125C103.803 33.6397 101.597 27.9612 97.9642 23.4712C99.6509 18.651 103.803 13.5007 103.803 13.5007ZM25.9557 59.7217C15.2518 59.7217 6.49414 50.8077 6.49414 39.9128C6.49414 29.018 15.2518 20.104 25.9557 20.104C36.6595 20.104 45.4172 29.018 45.4172 39.9128C45.4172 50.8077 36.6595 59.7217 25.9557 59.7217ZM58.3925 39.9128C58.3925 50.8077 67.1502 59.7217 77.854 59.7217C88.5578 59.7217 97.3155 50.8077 97.3155 39.9128C97.3155 29.018 88.5578 20.104 77.854 20.104C67.1502 20.104 58.3925 29.018 58.3925 39.9128Z" fill="black"/>
<path fill-rule="evenodd" clip-rule="evenodd" d="M12.9821 39.9129C12.9821 32.6299 18.8011 26.707 25.9564 26.707C33.1118 26.707 38.9308 32.6299 38.9308 39.9129C38.9308 47.196 33.1118 53.1188 25.9564 53.1188C18.8011 53.1188 12.9821 47.196 12.9821 39.9129ZM19.4683 39.9125C19.4683 43.5507 22.381 46.5154 25.9554 46.5154C29.5299 46.5154 32.4426 43.5507 32.4426 39.9125C32.4426 36.2743 29.5299 33.3096 25.9554 33.3096C22.381 33.3096 19.4683 36.2743 19.4683 39.9125Z" fill="black"/>
<path fill-rule="evenodd" clip-rule="evenodd" d="M64.8792 39.9129C64.8792 32.6299 70.6982 26.707 77.8535 26.707C85.0089 26.707 90.8279 32.6299 90.8279 39.9129C90.8279 47.196 85.0089 53.1188 77.8535 53.1188C70.6982 53.1188 64.8792 47.196 64.8792 39.9129ZM71.3654 39.9125C71.3654 43.5507 74.2716 46.5154 77.8525 46.5154C81.4335 46.5154 84.3397 43.5507 84.3397 39.9125C84.3397 36.2743 81.4335 33.3096 77.8525 33.3096C74.2716 33.3096 71.3654 36.2743 71.3654 39.9125Z" fill="black"/>
<path d="M25.9556 43.214C27.747 43.214 29.1992 41.7359 29.1992 39.9126C29.1992 38.0892 27.747 36.6111 25.9556 36.6111C24.1642 36.6111 22.712 38.0892 22.712 39.9126C22.712 41.7359 24.1642 43.214 25.9556 43.214Z" fill="black"/>
<path d="M77.8539 43.214C79.6453 43.214 81.0975 41.7359 81.0975 39.9126C81.0975 38.0892 79.6453 36.6111 77.8539 36.6111C76.0626 36.6111 74.6104 38.0892 74.6104 39.9126C74.6104 41.7359 76.0626 43.214 77.8539 43.214Z" fill="black"/>
</g>
</svg>
