<svg width="63" height="63" viewBox="0 0 63 63" fill="none" xmlns="http://www.w3.org/2000/svg">
<g clip-path="url(#clip0_220_2264)">
<path d="M62.7131 30.4274C62.2773 29.6335 61.8115 28.8616 61.3195 28.111C55.3663 16.4712 44.4679 8.08615 31.5 8.08615C18.4974 8.08615 7.61676 16.5034 1.68024 28.1118C1.18842 28.862 0.722808 29.6336 0.287099 30.4274C-0.0956997 31.1246 -0.0956997 31.9571 0.287099 32.6542C0.722808 33.448 1.18854 34.2197 1.68036 34.9702C7.63078 46.6059 17.9429 54.0589 29.2776 54.9113C29.7871 54.9493 30.2288 54.5683 30.2671 54.0602C30.3054 53.5518 29.9243 53.1089 29.416 53.0706C22.589 52.5574 16.1454 49.4834 10.9064 44.4475C16.9139 48.6334 24.1066 50.8723 31.4999 50.8723C38.8819 50.8723 46.0768 48.6397 52.0933 44.4474C46.8546 49.4833 40.4111 52.5571 33.5842 53.0705C33.0759 53.1088 32.6949 53.5517 32.7332 54.06C32.7712 54.5656 33.211 54.9489 33.7226 54.9111C45.0568 54.0588 55.3687 46.6059 61.319 34.9707C61.811 34.2201 62.2769 33.4482 62.7127 32.6541C63.0956 31.957 63.0956 31.1246 62.7131 30.4274ZM31.5 9.93198C39.2116 9.93198 46.4656 13.098 52.2484 18.743C46.1696 14.4587 38.9065 12.2093 31.5 12.2093C24.1093 12.2093 16.8427 14.4499 10.7514 18.743C16.5343 13.0981 23.7884 9.93198 31.5 9.93198ZM61.095 31.766C55.2646 42.3866 43.947 49.0266 31.5 49.0266C18.8907 49.0266 7.65662 42.2432 1.90504 31.766C1.82765 31.6251 1.82765 31.4568 1.90504 31.3158C7.73353 20.6983 19.0549 14.0554 31.4999 14.0554C44.5591 14.0554 55.5825 21.2751 61.0949 31.3158C61.1723 31.4567 61.1723 31.6251 61.095 31.766Z" fill="#1D80EB"/>
<path d="M31.5002 20.6928C25.4775 20.6928 20.6112 25.5945 20.6112 31.5819C20.6112 37.6286 25.5299 42.4709 31.5002 42.4709C37.5308 42.4709 42.3891 37.5622 42.3891 31.5819C42.3893 25.5256 37.4593 20.6928 31.5002 20.6928ZM30.5774 22.8058V27.3585C29.7044 27.3012 28.8439 27.1625 28.0052 26.9454C28.4188 25.5042 29.2771 23.5475 30.5774 22.8058ZM27.4616 23.4955C26.9306 24.3861 26.5395 25.3714 26.2514 26.3631C25.724 26.1479 25.2088 25.9004 24.709 25.6201C25.4989 24.7214 26.4343 24.0082 27.4616 23.4955ZM25.8337 28.1829C25.6957 28.9793 25.6063 29.809 25.5688 30.6587H22.5038C22.6294 29.4216 23.0111 28.2253 23.6339 27.1293C24.3417 27.5383 25.0767 27.8909 25.8337 28.1829ZM23.6733 36.1028C23.0475 35.0237 22.6362 33.8051 22.5038 32.5046H25.5686C25.6075 33.385 25.7015 34.2442 25.8481 35.0668C25.1001 35.3545 24.3735 35.7011 23.6733 36.1028ZM24.7624 37.6051C25.2529 37.3328 25.7583 37.0924 26.2752 36.8826C26.5606 37.8452 26.9453 38.8015 27.4615 39.6675C26.43 39.1524 25.5167 38.4479 24.7624 37.6051ZM30.5774 40.3578C29.2864 39.6214 28.4499 37.7321 28.0298 36.3034C28.8606 36.0899 29.713 35.9536 30.5774 35.8967V40.3578ZM30.5775 34.0493C29.5755 34.1075 28.5872 34.259 27.6239 34.5029C27.5219 33.8823 27.4492 33.2031 27.4157 32.5046H30.5775V34.0493ZM30.5775 30.6587H27.4157C27.4489 29.9657 27.5163 29.3361 27.6092 28.7484C28.577 28.9944 29.5702 29.1472 30.5775 29.2057V30.6587ZM39.3667 27.1294C39.9966 28.2378 40.3728 29.4382 40.4967 30.6589H37.4318C37.3943 29.8091 37.3048 28.9795 37.1669 28.183C37.924 27.8911 38.6589 27.5383 39.3667 27.1294ZM38.2916 25.6201C37.7917 25.9005 37.2765 26.148 36.7492 26.3632C36.4617 25.3738 36.0708 24.388 35.5389 23.4955C36.5858 24.0189 37.5069 24.7274 38.2916 25.6201ZM32.4232 22.8056C33.4306 23.3809 34.3964 24.8577 34.9953 26.9453C34.1567 27.1624 33.2962 27.301 32.4232 27.3584V22.8056ZM32.4231 29.2058C33.4305 29.1474 34.4238 28.9945 35.3916 28.7484C35.487 29.3526 35.5528 29.9912 35.5849 30.6589H32.4231V29.2058ZM32.4231 40.3577V35.8966C33.2874 35.9535 34.1396 36.0899 34.9706 36.3034C34.3703 38.3461 33.4171 39.7904 32.4231 40.3577ZM32.4231 34.0493V32.5047H35.5849C35.5513 33.2052 35.4796 33.8726 35.3766 34.503C34.4135 34.259 33.4252 34.1075 32.4231 34.0493ZM35.539 39.6675C36.0551 38.8018 36.4398 37.8452 36.7253 36.8826C37.2422 37.0923 37.7474 37.3328 38.2379 37.6051C37.4961 38.4343 36.5832 39.1467 35.539 39.6675ZM39.327 36.103C38.6269 35.7012 37.9004 35.3546 37.1523 35.0669C37.2988 34.2443 37.3928 33.3851 37.4317 32.5046H40.4966C40.3642 33.8052 39.9529 35.0237 39.327 36.103Z" fill="#1D80EB"/>
<path d="M45.1298 32.8239C44.6261 32.7441 44.1535 33.0877 44.0739 33.5909C43.0895 39.8043 37.8015 44.314 31.5001 44.314C24.4797 44.314 18.7681 38.6024 18.7681 31.5819C18.7681 24.5615 24.4797 18.8499 31.5001 18.8499C37.8016 18.8499 43.0895 23.3596 44.0739 29.573C44.1535 30.0762 44.626 30.4199 45.1298 30.34C45.6332 30.2603 45.9766 29.7876 45.8967 29.2842C45.3597 25.894 43.6245 22.7866 41.0111 20.5344C38.3693 18.2578 34.9916 17.0042 31.5001 17.0042C23.4619 17.0042 16.9222 23.5439 16.9222 31.5821C16.9222 39.6202 23.4618 46.1597 31.5 46.1597C34.9916 46.1597 38.3693 44.9061 41.011 42.6295C43.6245 40.3772 45.3596 37.2699 45.8966 33.8797C45.9764 33.3763 45.633 32.9036 45.1298 32.8239Z" fill="#1D80EB"/>
</g>
<defs>
<clipPath id="clip0_220_2264">
<rect width="63" height="63" fill="white"/>
</clipPath>
</defs>
</svg>
