<svg width="29" height="29" viewBox="0 0 29 29" fill="none" xmlns="http://www.w3.org/2000/svg">
<path d="M14.5 29C22.5081 29 29 22.5081 29 14.5C29 6.49187 22.5081 0 14.5 0C6.49187 0 0 6.49187 0 14.5C0 22.5081 6.49187 29 14.5 29Z" fill="#B1B1B1"/>
<path fill-rule="evenodd" clip-rule="evenodd" d="M13.9523 20.8598H15.0904C15.0904 20.8598 15.4342 20.8221 15.6097 20.6329C15.7712 20.4592 15.766 20.133 15.766 20.133C15.766 20.133 15.7438 18.6059 16.4525 18.381C17.1512 18.1595 18.0484 19.8569 18.9993 20.5096C19.7184 21.0035 20.2648 20.8952 20.2648 20.8952L22.8074 20.8598C22.8074 20.8598 24.1376 20.7779 23.5069 19.7321C23.4552 19.6465 23.1396 18.9584 21.6164 17.5446C20.0221 16.0648 20.2356 16.3042 22.1561 13.7445C23.3257 12.1856 23.7933 11.2339 23.6472 10.8263C23.5079 10.438 22.6477 10.5406 22.6477 10.5406L19.7848 10.5585C19.7848 10.5585 19.5726 10.5295 19.4152 10.6236C19.2614 10.7159 19.1624 10.9309 19.1624 10.9309C19.1624 10.9309 18.7093 12.1373 18.105 13.1631C16.8302 15.3279 16.3205 15.4421 16.1121 15.3077C15.6275 14.9945 15.7485 14.0492 15.7485 13.3777C15.7485 11.2799 16.0666 10.4052 15.1289 10.1788C14.8177 10.1036 14.5887 10.0539 13.7928 10.0459C12.7713 10.0353 11.9067 10.049 11.4172 10.2889C11.0915 10.4484 10.8403 10.8038 10.9933 10.8242C11.1825 10.8495 11.611 10.9397 11.8382 11.2491C12.1316 11.6482 12.1213 12.5446 12.1213 12.5446C12.1213 12.5446 12.2898 15.0141 11.7276 15.3209C11.3417 15.5313 10.8123 15.1017 9.67582 13.1378C9.09347 12.1318 8.6538 11.0199 8.6538 11.0199C8.6538 11.0199 8.56902 10.812 8.41782 10.7009C8.2343 10.5662 7.97789 10.5233 7.97789 10.5233L5.25743 10.5412C5.25743 10.5412 4.84903 10.5525 4.69912 10.7301C4.56574 10.888 4.68852 11.2148 4.68852 11.2148C4.68852 11.2148 6.81836 16.1977 9.22995 18.7088C11.4412 21.011 13.9523 20.8598 13.9523 20.8598Z" fill="white"/>
</svg>
