<svg width="17" height="17" viewBox="0 0 17 17" fill="none" xmlns="http://www.w3.org/2000/svg">
<path d="M8.50212 0H8.49788C3.81119 0 0 3.81225 0 8.5C0 10.3594 0.59925 12.0828 1.61819 13.4821L0.558875 16.6398L3.82606 15.5954C5.17013 16.4858 6.77344 17 8.50212 17C13.1888 17 17 13.1867 17 8.5C17 3.81331 13.1888 0 8.50212 0Z" fill="#5AD074"/>
<path d="M13.4481 12.0032C13.243 12.5823 12.4291 13.0625 11.78 13.2028C11.3358 13.2973 10.7557 13.3728 8.80283 12.5631C6.3049 11.5283 4.69627 8.98994 4.5709 8.82525C4.45084 8.66057 3.56152 7.48119 3.56152 6.26144C3.56152 5.04169 4.18096 4.44776 4.43065 4.19276C4.63571 3.98344 4.97465 3.88782 5.29977 3.88782C5.40496 3.88782 5.49952 3.89313 5.58452 3.89738C5.83421 3.908 5.95959 3.92288 6.12427 4.31707C6.32934 4.81113 6.82871 6.03088 6.88821 6.15626C6.94877 6.28163 7.00934 6.45163 6.92434 6.61632C6.84465 6.78632 6.77452 6.86175 6.64915 7.00625C6.52377 7.15075 6.40477 7.26126 6.2794 7.41638C6.16465 7.55132 6.03502 7.69582 6.17952 7.94551C6.32402 8.18988 6.8234 9.00482 7.55865 9.65932C8.50746 10.504 9.27671 10.7739 9.5519 10.8886C9.75696 10.9736 10.0013 10.9534 10.1511 10.7941C10.3413 10.589 10.5761 10.249 10.8152 9.91432C10.9852 9.67419 11.1998 9.64444 11.4251 9.72944C11.6546 9.80913 12.869 10.4094 13.1187 10.5338C13.3684 10.6591 13.5331 10.7186 13.5936 10.8238C13.6531 10.929 13.6531 11.4231 13.4481 12.0032Z" fill="#FAFAFA"/>
</svg>
