<svg width="17" height="18" viewBox="0 0 17 18" fill="none" xmlns="http://www.w3.org/2000/svg">
<path d="M8.50122 17.382C13.1952 17.382 17.0005 13.6236 17.0005 8.98749C17.0005 4.35135 13.1952 0.593018 8.50122 0.593018C3.8072 0.593018 0.00195312 4.35135 0.00195312 8.98749C0.00195312 13.6236 3.8072 17.382 8.50122 17.382Z" fill="white"/>
<path d="M16.5132 6.18896H11.2764C11.5039 7.98224 11.5052 9.95816 11.2808 11.7537H16.5244C16.8305 10.8875 16.9988 9.95724 16.9988 8.98803C16.9989 8.00609 16.8267 7.06446 16.5132 6.18896Z" fill="#2B479D"/>
<path d="M11.2764 6.18882H16.5132C16.5124 6.18616 16.5116 6.18393 16.5105 6.18151C15.4228 3.15213 12.6246 0.923302 9.2627 0.627441C10.5638 1.33181 10.9439 3.56343 11.2764 6.18882Z" fill="#EFECEC"/>
<path d="M9.26318 17.3479C12.6311 17.0515 15.4332 14.815 16.5167 11.7775C16.5196 11.7694 16.522 11.7615 16.5249 11.7537H11.2812C10.9512 14.3933 10.5695 16.6406 9.26318 17.3479Z" fill="#E63026"/>
<path d="M0 8.98778C0 9.95713 0.168565 10.8872 0.4744 11.7534H11.7185C11.9431 9.95777 11.9415 7.98199 11.7143 6.18872H0.485704C0.172189 7.06425 0 8.00588 0 8.98778Z" fill="#3757A6"/>
<path d="M0.488531 6.18154C0.487742 6.18392 0.486916 6.18619 0.48584 6.18885H11.7145C11.3817 3.56343 10.5641 1.33184 9.2631 0.62747C9.01146 0.605459 8.75701 0.593018 8.49963 0.593018C4.80216 0.592982 1.65786 2.92531 0.488531 6.18154Z" fill="#EFEFEF"/>
<path d="M11.7186 11.7534H0.474609C0.477444 11.7613 0.4801 11.7692 0.482792 11.7773C1.64745 15.0418 4.79625 17.3824 8.49963 17.3824C8.75705 17.3824 9.01149 17.3699 9.2631 17.3477C10.5696 16.6404 11.3886 14.393 11.7186 11.7534Z" fill="#E73B36"/>
</svg>
