<svg width="29" height="29" viewBox="0 0 29 29" fill="none" xmlns="http://www.w3.org/2000/svg">
<g clip-path="url(#clip0_174_1129)">
<path d="M1.8124 1.97319C-0.466522 4.34032 -0.00010509 6.85486 -0.00010509 14.4939C-0.00010509 20.8377 -1.10694 27.1971 4.68581 28.6943C6.49469 29.1595 22.522 29.1595 24.3285 28.6919C26.7403 28.0696 28.7026 26.1133 28.9709 22.7021C29.0084 22.2261 29.0084 6.77028 28.9697 6.28453C28.6845 2.65107 26.4479 0.557026 23.5008 0.132902C22.8253 0.0350265 22.69 0.00602651 19.2245 -1.51545e-05C6.9321 0.00602651 4.23752 -0.541349 1.8124 1.97319Z" fill="url(#paint0_linear_174_1129)"/>
<path d="M14.4975 3.7928C10.1101 3.7928 5.94373 3.40251 4.35236 7.48668C3.69502 9.17351 3.79048 11.3642 3.79048 14.5011C3.79048 17.2536 3.70227 19.8407 4.35236 21.5142C5.94011 25.6008 10.1403 25.2093 14.4951 25.2093C18.6965 25.2093 23.0284 25.6467 24.6391 21.5142C25.2976 19.8105 25.2009 17.6524 25.2009 14.5011C25.2009 10.3178 25.4317 7.61718 23.4029 5.5896C21.3488 3.53543 18.5708 3.7928 14.4927 3.7928H14.4975ZM13.5381 5.72251C22.69 5.70801 23.8549 4.6906 23.212 18.8245C22.9836 23.8234 19.1774 23.2748 14.4987 23.2748C5.9679 23.2748 5.72261 23.0307 5.72261 14.4962C5.72261 5.86268 6.39927 5.72735 13.5381 5.7201V5.72251ZM20.2129 7.49997C19.5036 7.49997 18.9285 8.07514 18.9285 8.78443C18.9285 9.49372 19.5036 10.0689 20.2129 10.0689C20.9222 10.0689 21.4974 9.49372 21.4974 8.78443C21.4974 8.07514 20.9222 7.49997 20.2129 7.49997ZM14.4975 9.00193C11.461 9.00193 8.99961 11.4645 8.99961 14.5011C8.99961 17.5376 11.461 19.999 14.4975 19.999C17.5341 19.999 19.9942 17.5376 19.9942 14.5011C19.9942 11.4645 17.5341 9.00193 14.4975 9.00193ZM14.4975 10.9316C19.2161 10.9316 19.2221 18.0705 14.4975 18.0705C9.78019 18.0705 9.77294 10.9316 14.4975 10.9316Z" fill="white"/>
</g>
<defs>
<linearGradient id="paint0_linear_174_1129" x1="1.868" y1="27.1477" x2="28.8204" y2="3.8207" gradientUnits="userSpaceOnUse">
<stop stop-color="#FFDD55"/>
<stop offset="0.5" stop-color="#FF543E"/>
<stop offset="1" stop-color="#C837AB"/>
</linearGradient>
<clipPath id="clip0_174_1129">
<rect width="29" height="29" fill="white"/>
</clipPath>
</defs>
</svg>
